<?xml version="1.0" ?><svg height="105px" version="1.1" viewBox="0 0 105 105" width="105px" xmlns="http://www.w3.org/2000/svg" xmlns:sketch="http://www.bohemiancoding.com/sketch/ns" xmlns:xlink="http://www.w3.org/1999/xlink"><title/><defs/><g fill="none" fill-rule="evenodd" id="Imoticon" stroke="none" stroke-width="1"><path d="M52,94 C75.1959606,94 94,75.1959606 94,52 C94,28.8040394 75.1959606,10 52,10 C28.8040394,10 10,28.8040394 10,52 C10,75.1959606 28.8040394,94 52,94 Z M65.6159672,37.4755859 C66.2424321,36.90625 71.9562993,42.4951173 74.7124028,43.3959961 C77.4685063,44.2968749 83.8088383,44.2180174 83.8088383,45.625 C83.8088385,47.5879047 78.7072757,49.4975589 73.7185063,47.3076172 C68.7297368,45.1176755 64.9895024,38.0449219 65.6159672,37.4755859 Z M38.7402344,37.4755859 C38.1137695,36.90625 32.3999023,42.4951173 29.6437988,43.3959961 C26.8876953,44.2968749 20.5473633,44.2180174 20.5473633,45.625 C20.5473631,47.5879047 25.6489259,49.4975589 30.6376953,47.3076172 C35.6264648,45.1176755 39.3666992,38.0449219 38.7402344,37.4755859 Z M68.5561523,59.706543 C64.4631348,59.697924 57.3354492,56.15625 57.3354492,56.15625 C57.3354492,56.15625 57.9257812,65.7323166 67.9528809,65.7241211 C77.9799805,65.7159252 78.5703125,56.105957 78.5703125,56.105957 C78.5703125,56.105957 72.6491699,59.715162 68.5561523,59.706543 Z M36.5561523,59.706543 C32.4631348,59.697924 25.3354492,56.15625 25.3354492,56.15625 C25.3354492,56.15625 25.9257812,65.7323166 35.9528809,65.7241211 C45.9799805,65.7159252 46.5703125,56.105957 46.5703125,56.105957 C46.5703125,56.105957 40.6491699,59.715162 36.5561523,59.706543 Z M45.6795775,75 C45.6795775,75 43.0000005,75.6594238 43,77.5 C42.9999997,79.3405762 45.6795775,80 45.6795775,80 L58.2992958,80 C58.2992958,80 61,79.2485352 61,77.5 C60.9999998,75.7514648 58.2992958,75 58.2992958,75 L45.6795775,75 Z M45.6795775,75" fill="#000000" id="imoticon_17"/></g></svg>