<?xml version="1.0" ?><svg height="105px" version="1.1" viewBox="0 0 105 105" width="105px" xmlns="http://www.w3.org/2000/svg" xmlns:sketch="http://www.bohemiancoding.com/sketch/ns" xmlns:xlink="http://www.w3.org/1999/xlink"><title/><defs/><g fill="none" fill-rule="evenodd" id="Imoticon" stroke="none" stroke-width="1"><path d="M52,94 C75.1959606,94 94,75.1959606 94,52 C94,28.8040394 75.1959606,10 52,10 C28.8040394,10 10,28.8040394 10,52 C10,75.1959606 28.8040394,94 52,94 Z M52,73.6389158 C46.4893799,73.6389157 40.0000005,67.1594238 40,69 C39.9999997,70.8405762 43.0841064,79.734619 52,79.734619 C60.9158936,79.734619 64,70.7485352 64,69 C63.9999998,67.2514648 57.5106201,73.6389159 52,73.6389158 Z M68.5561523,50.706543 C64.4631348,50.697924 57.3354492,47.15625 57.3354492,47.15625 C57.3354492,47.15625 57.9257812,56.7323166 67.9528809,56.7241211 C77.9799805,56.7159252 78.5703125,47.105957 78.5703125,47.105957 C78.5703125,47.105957 72.6491699,50.715162 68.5561523,50.706543 Z M36.5561523,50.706543 C32.4631348,50.697924 25.3354492,47.15625 25.3354492,47.15625 C25.3354492,47.15625 25.9257812,56.7323166 35.9528809,56.7241211 C45.9799805,56.7159252 46.5703125,47.105957 46.5703125,47.105957 C46.5703125,47.105957 40.6491699,50.715162 36.5561523,50.706543 Z M80.7402344,44.2426374 C80.1137695,44.8119733 74.3999023,39.223106 71.6437988,38.3222272 C68.8876953,37.4213484 62.5473633,37.5002059 62.5473633,36.0932233 C62.5473631,34.1303186 67.6489259,32.2206644 72.6376953,34.4106061 C77.6264648,36.6005478 81.3666992,43.6733014 80.7402344,44.2426374 Z M23.6159672,44.2426374 C24.2424321,44.8119733 29.9562993,39.223106 32.7124028,38.3222272 C35.4685063,37.4213484 41.8088383,37.5002059 41.8088383,36.0932233 C41.8088385,34.1303186 36.7072757,32.2206644 31.7185063,34.4106061 C26.7297368,36.6005478 22.9895024,43.6733014 23.6159672,44.2426374 Z M23.6159672,44.2426374" fill="#000000" id="imoticon_18"/></g></svg>