<svg width="105" height="105" xmlns="http://www.w3.org/2000/svg">
 <title/>
 <defs>
  <linearGradient id="svg_1" x1="0" y1="0" x2="1" y2="0">
   <stop stop-color="#ccddff" offset="0"/>
   <stop stop-color="#6699AA" offset="1"/>
  </linearGradient>
 </defs>
 <g>
  <title>background</title>
  <rect x="-1" y="-1" width="107" height="107" id="canvas_background" fill="none"/>
 </g>
 <g>
  <title>Layer 1</title>
  <g fill="none" fill-rule="evenodd" id="Imoticon">
   <path d="m52,94c23.195961,0 42,-18.804039 42,-42c0,-23.195959 -18.804039,-42 -42,-42c-23.195959,0 -42,18.804041 -42,42c0,23.195961 18.804041,42 42,42zm0,-20.361076c-5.51062,0 -12,-6.4795 -12,-4.638924c0,1.840584 3.08411,10.734619 12,10.734619c8.91589,0 12,-8.986076 12,-10.734619c0,-1.748543 -6.48938,4.638924 -12,4.638924zm16.556152,-22.932384c-4.093033,-0.00861 -11.220703,-3.550289 -11.220703,-3.550289c0,0 0.590332,9.576069 10.617432,9.567871c10.0271,-0.008202 10.617432,-9.61816 10.617432,-9.61816c0,0 -5.921143,3.6092 -10.01416,3.600578zm-32.000004,0c-4.093018,-0.00861 -11.220699,-3.550289 -11.220699,-3.550289c0,0 0.59033,9.576069 10.617432,9.567871c10.0271,-0.008202 10.617428,-9.61816 10.617428,-9.61816c0,0 -5.921139,3.6092 -10.01416,3.600578zm44.184078,-6.463898c-0.626457,0.569328 -6.340317,-5.019531 -9.096428,-5.92041c-2.756096,-0.900883 -9.096439,-0.822021 -9.096439,-2.229012c0,-1.962898 5.101574,-3.872559 10.090343,-1.68261c4.988747,2.189941 8.728996,9.262691 8.102516,9.832031l0.000008,0zm-57.124256,0c0.626459,0.569328 6.34033,-5.019531 9.096428,-5.92041c2.756111,-0.900883 9.096443,-0.822021 9.096443,-2.229012c0,-1.962898 -5.101563,-3.872559 -10.090332,-1.68261c-4.98877,2.189941 -8.72901,9.262691 -8.102539,9.832031zm0,0" fill="url(#svg_1)" id="imoticon_18" stroke="#FFFFFF"/>
  </g>
 </g>
</svg>